<?xml version="1.0" standalone="no"?><!DOCTYPE svg PUBLIC "-//W3C//DTD SVG 1.1//EN" "http://www.w3.org/Graphics/SVG/1.1/DTD/svg11.dtd"><svg t="1686184846291" class="icon" viewBox="0 0 1024 1024" version="1.1" xmlns="http://www.w3.org/2000/svg" p-id="1361" xmlns:xlink="http://www.w3.org/1999/xlink" width="200" height="200"><path d="M754.791884 293.62087l-172.744348 27.751884a18.550725 18.550725 0 0 0 2.745507 37.101449h2.745508l172.744348-27.751884a18.550725 18.550725 0 1 0-5.491015-36.656232zM754.791884 399.508406l-172.744348 27.751884a18.550725 18.550725 0 0 0 2.745507 37.101449h2.745508l172.744348-27.826087a18.550725 18.550725 0 0 0-5.491015-36.656232zM262.975072 330.277101l172.744348 27.751885h2.745508a18.550725 18.550725 0 0 0 2.745507-37.10145l-172.744348-27.306666a18.550725 18.550725 0 0 0-5.491015 36.656231zM754.791884 505.395942l-172.744348 27.826087a18.550725 18.550725 0 0 0 2.745507 37.101449h2.745508l172.744348-27.751884a18.550725 18.550725 0 0 0-5.491015-37.101449zM262.975072 436.164638l172.744348 27.826087h2.745508a18.550725 18.550725 0 0 0 2.745507-37.10145l-172.744348-27.380869a18.550725 18.550725 0 0 0-5.491015 36.656232z" fill="#5398F7" p-id="1362"></path><path d="M883.014493 7.42029H140.985507A133.565217 133.565217 0 0 0 7.42029 140.985507v742.028986a133.565217 133.565217 0 0 0 133.565217 133.565217h742.028986a133.565217 133.565217 0 0 0 133.565217-133.565217V140.985507a133.565217 133.565217 0 0 0-133.565217-133.565217z m21.222029 732.382609a75.538551 75.538551 0 0 1-73.609276 75.464347l-310.464927 56.691015a16.918261 16.918261 0 0 1-3.339131 0 15.508406 15.508406 0 0 1-3.190724 0l-320.25971-56.616812a75.612754 75.612754 0 0 1-73.757682-75.464348V281.971014a75.538551 75.538551 0 0 1 75.315942-75.53855 45.708986 45.708986 0 0 1 45.412174-40.663189l253.922319 42.592464c-0.51942 1.706667-0.890435 570.249275-0.890435 570.249275l-253.031884-42.147246a45.634783 45.634783 0 0 1-45.708985-45.634782V243.533913A38.437101 38.437101 0 0 0 156.716522 281.971014v457.906087a38.437101 38.437101 0 0 0 38.362898 38.362899 16.176232 16.176232 0 0 1 3.264928 0l318.47884 56.32 308.684058-56.32a15.953623 15.953623 0 0 1 3.339131 0 38.362899 38.362899 0 0 0 38.288695-38.362899V281.971014a38.362899 38.362899 0 0 0-38.288695-38.362898 18.550725 18.550725 0 0 1-4.526377-0.667826V690.828986a45.634783 45.634783 0 0 1-45.634783 45.634782L523.056232 779.130435s0-569.136232-0.890435-570.917102l256.51942-42.369855a45.56058 45.56058 0 0 1 45.412174 41.331015 16.695652 16.695652 0 0 1 4.748986-0.667826A75.538551 75.538551 0 0 1 904.236522 281.971014z" fill="#5398F7" p-id="1363"></path><path d="M262.975072 542.126377l172.744348 27.751884h2.745508a18.550725 18.550725 0 0 0 2.745507-37.101449l-172.744348-27.38087a18.550725 18.550725 0 0 0-5.491015 37.101449z" fill="#5398F7" p-id="1364"></path></svg>